%TF.GenerationSoftware,KiCad,Pcbnew,9.0.2*%
%TF.CreationDate,2025-07-06T16:22:29+02:00*%
%TF.ProjectId,TalkShow,54616c6b-5368-46f7-972e-6b696361645f,rev?*%
%TF.SameCoordinates,Original*%
%TF.FileFunction,Copper,L2,Bot*%
%TF.FilePolarity,Positive*%
%FSLAX46Y46*%
G04 Gerber Fmt 4.6, Leading zero omitted, Abs format (unit mm)*
G04 Created by KiCad (PCBNEW 9.0.2) date 2025-07-06 16:22:29*
%MOMM*%
%LPD*%
G01*
G04 APERTURE LIST*
%TA.AperFunction,ComponentPad*%
%ADD10C,2.000000*%
%TD*%
%TA.AperFunction,ComponentPad*%
%ADD11R,0.850000X0.850000*%
%TD*%
%TA.AperFunction,ComponentPad*%
%ADD12C,0.850000*%
%TD*%
%TA.AperFunction,ComponentPad*%
%ADD13C,1.700000*%
%TD*%
%TA.AperFunction,ComponentPad*%
%ADD14C,1.500000*%
%TD*%
%TA.AperFunction,ComponentPad*%
%ADD15R,1.500000X1.500000*%
%TD*%
%TA.AperFunction,ViaPad*%
%ADD16C,0.600000*%
%TD*%
%TA.AperFunction,Conductor*%
%ADD17C,0.200000*%
%TD*%
G04 APERTURE END LIST*
D10*
%TO.P,REF\u002A\u002A,1*%
%TO.N,N/C*%
X167500000Y-61000000D03*
X167500000Y-87000000D03*
X170000000Y-61000000D03*
X170000000Y-87000000D03*
X179000000Y-61000000D03*
X179000000Y-87000000D03*
X181500000Y-61000000D03*
X181500000Y-87000000D03*
%TD*%
D11*
%TO.P,REF\u002A\u002A,1*%
%TO.N,N/C*%
X141000000Y-72000000D03*
D12*
%TO.P,REF\u002A\u002A,2*%
X142000000Y-72000000D03*
%TO.P,REF\u002A\u002A,3*%
X141000000Y-73000000D03*
%TO.P,REF\u002A\u002A,4*%
X142000000Y-73000000D03*
%TO.P,REF\u002A\u002A,5*%
X141000000Y-74000000D03*
%TO.P,REF\u002A\u002A,6*%
X142000000Y-74000000D03*
%TO.P,REF\u002A\u002A,7*%
X141000000Y-75000000D03*
%TO.P,REF\u002A\u002A,8*%
X142000000Y-75000000D03*
%TO.P,REF\u002A\u002A,9*%
X141000000Y-76000000D03*
%TO.P,REF\u002A\u002A,10*%
X142000000Y-76000000D03*
%TO.P,REF\u002A\u002A,11*%
X141000000Y-77000000D03*
%TO.P,REF\u002A\u002A,12*%
X142000000Y-77000000D03*
%TO.P,REF\u002A\u002A,13*%
X141000000Y-78000000D03*
%TO.P,REF\u002A\u002A,14*%
X142000000Y-78000000D03*
%TO.P,REF\u002A\u002A,15*%
X141000000Y-79000000D03*
%TO.P,REF\u002A\u002A,16*%
X142000000Y-79000000D03*
%TO.P,REF\u002A\u002A,17*%
X141000000Y-80000000D03*
%TO.P,REF\u002A\u002A,18*%
X142000000Y-80000000D03*
%TD*%
D11*
%TO.P,REF\u002A\u002A,1*%
%TO.N,N/C*%
X131000000Y-74000000D03*
D12*
%TO.P,REF\u002A\u002A,2*%
X132000000Y-74000000D03*
%TO.P,REF\u002A\u002A,3*%
X131000000Y-75000000D03*
%TO.P,REF\u002A\u002A,4*%
X132000000Y-75000000D03*
%TO.P,REF\u002A\u002A,5*%
X131000000Y-76000000D03*
%TO.P,REF\u002A\u002A,6*%
X132000000Y-76000000D03*
%TO.P,REF\u002A\u002A,7*%
X131000000Y-77000000D03*
%TO.P,REF\u002A\u002A,8*%
X132000000Y-77000000D03*
%TO.P,REF\u002A\u002A,9*%
X131000000Y-78000000D03*
%TO.P,REF\u002A\u002A,10*%
X132000000Y-78000000D03*
%TD*%
D13*
%TO.P,REF\u002A\u002A,6*%
%TO.N,N/C*%
X134695000Y-105600000D03*
%TO.P,REF\u002A\u002A,5*%
X134695000Y-103060000D03*
%TO.P,REF\u002A\u002A,4*%
X134695000Y-100520000D03*
%TO.P,REF\u002A\u002A,3*%
X134695000Y-97980000D03*
%TO.P,REF\u002A\u002A,2*%
X134695000Y-95440000D03*
%TO.P,REF\u002A\u002A,1*%
X134695000Y-92900000D03*
%TO.P,REF\u002A\u002A,7*%
X161365000Y-92265000D03*
%TO.P,REF\u002A\u002A,8*%
X158825000Y-92265000D03*
%TO.P,REF\u002A\u002A,9*%
X156285000Y-92265000D03*
%TO.P,REF\u002A\u002A,10*%
X153745000Y-92265000D03*
%TO.P,REF\u002A\u002A,11*%
X151205000Y-92265000D03*
%TO.P,REF\u002A\u002A,12*%
X148665000Y-92265000D03*
%TO.P,REF\u002A\u002A,13*%
X146125000Y-92265000D03*
%TO.P,REF\u002A\u002A,14*%
X143585000Y-92265000D03*
%TO.P,REF\u002A\u002A,15*%
X141045000Y-92265000D03*
%TD*%
D14*
%TO.P,REF\u002A\u002A,30*%
%TO.N,N/C*%
X117360000Y-70000000D03*
%TO.P,REF\u002A\u002A,29*%
X117360000Y-72540000D03*
%TO.P,REF\u002A\u002A,28*%
X117360000Y-75080000D03*
%TO.P,REF\u002A\u002A,27*%
X117360000Y-77620000D03*
%TO.P,REF\u002A\u002A,26*%
X117360000Y-80160000D03*
%TO.P,REF\u002A\u002A,25*%
X117360000Y-82700000D03*
%TO.P,REF\u002A\u002A,24*%
X117360000Y-85240000D03*
%TO.P,REF\u002A\u002A,23*%
X117360000Y-87780000D03*
%TO.P,REF\u002A\u002A,22*%
X117360000Y-90320000D03*
%TO.P,REF\u002A\u002A,21*%
X117360000Y-92860000D03*
%TO.P,REF\u002A\u002A,20*%
X117360000Y-95400000D03*
%TO.P,REF\u002A\u002A,19*%
X117360000Y-97940000D03*
%TO.P,REF\u002A\u002A,18*%
X117360000Y-100480000D03*
%TO.P,REF\u002A\u002A,17*%
X117360000Y-103020000D03*
%TO.P,REF\u002A\u002A,16*%
X117360000Y-105560000D03*
%TO.P,REF\u002A\u002A,15*%
X94500000Y-105560000D03*
%TO.P,REF\u002A\u002A,14*%
X94500000Y-103020000D03*
%TO.P,REF\u002A\u002A,13*%
X94500000Y-100480000D03*
%TO.P,REF\u002A\u002A,12*%
X94500000Y-97940000D03*
%TO.P,REF\u002A\u002A,11*%
X94500000Y-95400000D03*
%TO.P,REF\u002A\u002A,10*%
X94500000Y-92860000D03*
%TO.P,REF\u002A\u002A,9*%
X94500000Y-90320000D03*
%TO.P,REF\u002A\u002A,8*%
X94500000Y-87780000D03*
%TO.P,REF\u002A\u002A,7*%
X94500000Y-85240000D03*
%TO.P,REF\u002A\u002A,6*%
X94500000Y-82700000D03*
%TO.P,REF\u002A\u002A,5*%
X94500000Y-80160000D03*
%TO.P,REF\u002A\u002A,4*%
X94500000Y-77620000D03*
%TO.P,REF\u002A\u002A,3*%
X94500000Y-75080000D03*
%TO.P,REF\u002A\u002A,2*%
X94500000Y-72540000D03*
D15*
%TO.P,REF\u002A\u002A,1*%
X94500000Y-70000000D03*
%TD*%
D16*
%TO.N,*%
X170000000Y-113000000D03*
X170000000Y-107000000D03*
X132500000Y-68000000D03*
X137500000Y-68000000D03*
X123000000Y-104500000D03*
X130000000Y-84000000D03*
X123000000Y-84000000D03*
X123000000Y-102000000D03*
X131000000Y-83000000D03*
X127500000Y-83000000D03*
X127500000Y-86000000D03*
X124500000Y-88000000D03*
X145500000Y-69500000D03*
X146000000Y-80500000D03*
X144500000Y-71000000D03*
X144500000Y-73000000D03*
X100000000Y-90500000D03*
%TD*%
D17*
%TO.N,*%
X170000000Y-107000000D02*
X170000000Y-113000000D01*
X137500000Y-68000000D02*
X132500000Y-68000000D01*
X123000000Y-102000000D02*
X123000000Y-104500000D01*
X130000000Y-84000000D02*
X123000000Y-84000000D01*
X127500000Y-83000000D02*
X131000000Y-83000000D01*
X132500000Y-86000000D02*
X138500000Y-80000000D01*
X127500000Y-86000000D02*
X132500000Y-86000000D01*
X138500000Y-80000000D02*
X141000000Y-80000000D01*
X124280000Y-87780000D02*
X124500000Y-88000000D01*
X117360000Y-87780000D02*
X124280000Y-87780000D01*
X138500000Y-72500000D02*
X139000000Y-73000000D01*
X139000000Y-69500000D02*
X138500000Y-70000000D01*
X145500000Y-69500000D02*
X139000000Y-69500000D01*
X139000000Y-73000000D02*
X141000000Y-73000000D01*
X146000000Y-84520000D02*
X146000000Y-80500000D01*
X138500000Y-70000000D02*
X138500000Y-72500000D01*
X153745000Y-92265000D02*
X146000000Y-84520000D01*
X143500000Y-73000000D02*
X142000000Y-73000000D01*
X143500000Y-75500000D02*
X143500000Y-73000000D01*
X156285000Y-88285000D02*
X143500000Y-75500000D01*
X156285000Y-92265000D02*
X156285000Y-88285000D01*
X139500000Y-70500000D02*
X139500000Y-72000000D01*
X144000000Y-70500000D02*
X139500000Y-70500000D01*
X144500000Y-71000000D02*
X144000000Y-70500000D01*
X139500000Y-72000000D02*
X141000000Y-72000000D01*
X144500000Y-74000000D02*
X144500000Y-73000000D01*
X158500000Y-87500000D02*
X145000000Y-74000000D01*
X145000000Y-74000000D02*
X144500000Y-74000000D01*
X158825000Y-87825000D02*
X158500000Y-87500000D01*
X158825000Y-92265000D02*
X158825000Y-87825000D01*
X146000000Y-72000000D02*
X142000000Y-72000000D01*
X161365000Y-87365000D02*
X146000000Y-72000000D01*
X161365000Y-92265000D02*
X161365000Y-87365000D01*
X117360000Y-85240000D02*
X124495000Y-85240000D01*
X124495000Y-85240000D02*
X134695000Y-95440000D01*
X109000000Y-99500000D02*
X100000000Y-90500000D01*
X109000000Y-110000000D02*
X109000000Y-99500000D01*
X122675000Y-110000000D02*
X109000000Y-110000000D01*
X134695000Y-97980000D02*
X122675000Y-110000000D01*
X107500000Y-100780000D02*
X94500000Y-87780000D01*
X107500000Y-111500000D02*
X107500000Y-100780000D01*
X123715000Y-111500000D02*
X107500000Y-111500000D01*
X134695000Y-100520000D02*
X123715000Y-111500000D01*
%TD*%
M02*
