%TF.GenerationSoftware,KiCad,Pcbnew,9.0.2*%
%TF.CreationDate,2025-07-06T16:22:29+02:00*%
%TF.ProjectId,TalkShow,54616c6b-5368-46f7-972e-6b696361645f,rev?*%
%TF.SameCoordinates,Original*%
%TF.FileFunction,Legend,Bot*%
%TF.FilePolarity,Positive*%
%FSLAX46Y46*%
G04 Gerber Fmt 4.6, Leading zero omitted, Abs format (unit mm)*
G04 Created by KiCad (PCBNEW 9.0.2) date 2025-07-06 16:22:29*
%MOMM*%
%LPD*%
G01*
G04 APERTURE LIST*
%ADD10C,2.000000*%
%ADD11R,0.850000X0.850000*%
%ADD12C,0.850000*%
%ADD13C,1.700000*%
%ADD14C,1.500000*%
%ADD15R,1.500000X1.500000*%
G04 APERTURE END LIST*
%LPC*%
D10*
%TO.C,REF\u002A\u002A*%
X167500000Y-61000000D03*
X167500000Y-87000000D03*
X170000000Y-61000000D03*
X170000000Y-87000000D03*
X179000000Y-61000000D03*
X179000000Y-87000000D03*
X181500000Y-61000000D03*
X181500000Y-87000000D03*
%TD*%
D11*
%TO.C,REF\u002A\u002A*%
X141000000Y-72000000D03*
D12*
X142000000Y-72000000D03*
X141000000Y-73000000D03*
X142000000Y-73000000D03*
X141000000Y-74000000D03*
X142000000Y-74000000D03*
X141000000Y-75000000D03*
X142000000Y-75000000D03*
X141000000Y-76000000D03*
X142000000Y-76000000D03*
X141000000Y-77000000D03*
X142000000Y-77000000D03*
X141000000Y-78000000D03*
X142000000Y-78000000D03*
X141000000Y-79000000D03*
X142000000Y-79000000D03*
X141000000Y-80000000D03*
X142000000Y-80000000D03*
%TD*%
D11*
%TO.C,REF\u002A\u002A*%
X131000000Y-74000000D03*
D12*
X132000000Y-74000000D03*
X131000000Y-75000000D03*
X132000000Y-75000000D03*
X131000000Y-76000000D03*
X132000000Y-76000000D03*
X131000000Y-77000000D03*
X132000000Y-77000000D03*
X131000000Y-78000000D03*
X132000000Y-78000000D03*
%TD*%
D13*
%TO.C,REF\u002A\u002A*%
X134695000Y-105600000D03*
X134695000Y-103060000D03*
X134695000Y-100520000D03*
X134695000Y-97980000D03*
X134695000Y-95440000D03*
X134695000Y-92900000D03*
X161365000Y-92265000D03*
X158825000Y-92265000D03*
X156285000Y-92265000D03*
X153745000Y-92265000D03*
X151205000Y-92265000D03*
X148665000Y-92265000D03*
X146125000Y-92265000D03*
X143585000Y-92265000D03*
X141045000Y-92265000D03*
%TD*%
D14*
%TO.C,REF\u002A\u002A*%
X117360000Y-70000000D03*
X117360000Y-72540000D03*
X117360000Y-75080000D03*
X117360000Y-77620000D03*
X117360000Y-80160000D03*
X117360000Y-82700000D03*
X117360000Y-85240000D03*
X117360000Y-87780000D03*
X117360000Y-90320000D03*
X117360000Y-92860000D03*
X117360000Y-95400000D03*
X117360000Y-97940000D03*
X117360000Y-100480000D03*
X117360000Y-103020000D03*
X117360000Y-105560000D03*
X94500000Y-105560000D03*
X94500000Y-103020000D03*
X94500000Y-100480000D03*
X94500000Y-97940000D03*
X94500000Y-95400000D03*
X94500000Y-92860000D03*
X94500000Y-90320000D03*
X94500000Y-87780000D03*
X94500000Y-85240000D03*
X94500000Y-82700000D03*
X94500000Y-80160000D03*
X94500000Y-77620000D03*
X94500000Y-75080000D03*
X94500000Y-72540000D03*
D15*
X94500000Y-70000000D03*
%TD*%
%LPD*%
M02*
