%TF.GenerationSoftware,KiCad,Pcbnew,9.0.2*%
%TF.CreationDate,2025-07-06T16:22:29+02:00*%
%TF.ProjectId,TalkShow,54616c6b-5368-46f7-972e-6b696361645f,rev?*%
%TF.SameCoordinates,Original*%
%TF.FileFunction,Copper,L1,Top*%
%TF.FilePolarity,Positive*%
%FSLAX46Y46*%
G04 Gerber Fmt 4.6, Leading zero omitted, Abs format (unit mm)*
G04 Created by KiCad (PCBNEW 9.0.2) date 2025-07-06 16:22:29*
%MOMM*%
%LPD*%
G01*
G04 APERTURE LIST*
%ADD10C,0.300000*%
%TA.AperFunction,NonConductor*%
%ADD11C,0.300000*%
%TD*%
%TA.AperFunction,ComponentPad*%
%ADD12C,2.000000*%
%TD*%
%TA.AperFunction,ComponentPad*%
%ADD13R,0.850000X0.850000*%
%TD*%
%TA.AperFunction,ComponentPad*%
%ADD14C,0.850000*%
%TD*%
%TA.AperFunction,ComponentPad*%
%ADD15C,1.700000*%
%TD*%
%TA.AperFunction,ComponentPad*%
%ADD16C,1.500000*%
%TD*%
%TA.AperFunction,ComponentPad*%
%ADD17R,1.500000X1.500000*%
%TD*%
%TA.AperFunction,ViaPad*%
%ADD18C,0.600000*%
%TD*%
%TA.AperFunction,Conductor*%
%ADD19C,0.200000*%
%TD*%
G04 APERTURE END LIST*
D10*
D11*
X97840225Y-57385912D02*
X98697368Y-57385912D01*
X98268796Y-58885912D02*
X98268796Y-57385912D01*
X99840225Y-58885912D02*
X99840225Y-58100198D01*
X99840225Y-58100198D02*
X99768796Y-57957341D01*
X99768796Y-57957341D02*
X99625939Y-57885912D01*
X99625939Y-57885912D02*
X99340225Y-57885912D01*
X99340225Y-57885912D02*
X99197367Y-57957341D01*
X99840225Y-58814484D02*
X99697367Y-58885912D01*
X99697367Y-58885912D02*
X99340225Y-58885912D01*
X99340225Y-58885912D02*
X99197367Y-58814484D01*
X99197367Y-58814484D02*
X99125939Y-58671626D01*
X99125939Y-58671626D02*
X99125939Y-58528769D01*
X99125939Y-58528769D02*
X99197367Y-58385912D01*
X99197367Y-58385912D02*
X99340225Y-58314484D01*
X99340225Y-58314484D02*
X99697367Y-58314484D01*
X99697367Y-58314484D02*
X99840225Y-58243055D01*
X100768796Y-58885912D02*
X100625939Y-58814484D01*
X100625939Y-58814484D02*
X100554510Y-58671626D01*
X100554510Y-58671626D02*
X100554510Y-57385912D01*
X101340224Y-58885912D02*
X101340224Y-57385912D01*
X101483082Y-58314484D02*
X101911653Y-58885912D01*
X101911653Y-57885912D02*
X101340224Y-58457341D01*
X102483082Y-58814484D02*
X102697368Y-58885912D01*
X102697368Y-58885912D02*
X103054510Y-58885912D01*
X103054510Y-58885912D02*
X103197368Y-58814484D01*
X103197368Y-58814484D02*
X103268796Y-58743055D01*
X103268796Y-58743055D02*
X103340225Y-58600198D01*
X103340225Y-58600198D02*
X103340225Y-58457341D01*
X103340225Y-58457341D02*
X103268796Y-58314484D01*
X103268796Y-58314484D02*
X103197368Y-58243055D01*
X103197368Y-58243055D02*
X103054510Y-58171626D01*
X103054510Y-58171626D02*
X102768796Y-58100198D01*
X102768796Y-58100198D02*
X102625939Y-58028769D01*
X102625939Y-58028769D02*
X102554510Y-57957341D01*
X102554510Y-57957341D02*
X102483082Y-57814484D01*
X102483082Y-57814484D02*
X102483082Y-57671626D01*
X102483082Y-57671626D02*
X102554510Y-57528769D01*
X102554510Y-57528769D02*
X102625939Y-57457341D01*
X102625939Y-57457341D02*
X102768796Y-57385912D01*
X102768796Y-57385912D02*
X103125939Y-57385912D01*
X103125939Y-57385912D02*
X103340225Y-57457341D01*
X103983081Y-58885912D02*
X103983081Y-57385912D01*
X104625939Y-58885912D02*
X104625939Y-58100198D01*
X104625939Y-58100198D02*
X104554510Y-57957341D01*
X104554510Y-57957341D02*
X104411653Y-57885912D01*
X104411653Y-57885912D02*
X104197367Y-57885912D01*
X104197367Y-57885912D02*
X104054510Y-57957341D01*
X104054510Y-57957341D02*
X103983081Y-58028769D01*
X105554510Y-58885912D02*
X105411653Y-58814484D01*
X105411653Y-58814484D02*
X105340224Y-58743055D01*
X105340224Y-58743055D02*
X105268796Y-58600198D01*
X105268796Y-58600198D02*
X105268796Y-58171626D01*
X105268796Y-58171626D02*
X105340224Y-58028769D01*
X105340224Y-58028769D02*
X105411653Y-57957341D01*
X105411653Y-57957341D02*
X105554510Y-57885912D01*
X105554510Y-57885912D02*
X105768796Y-57885912D01*
X105768796Y-57885912D02*
X105911653Y-57957341D01*
X105911653Y-57957341D02*
X105983082Y-58028769D01*
X105983082Y-58028769D02*
X106054510Y-58171626D01*
X106054510Y-58171626D02*
X106054510Y-58600198D01*
X106054510Y-58600198D02*
X105983082Y-58743055D01*
X105983082Y-58743055D02*
X105911653Y-58814484D01*
X105911653Y-58814484D02*
X105768796Y-58885912D01*
X105768796Y-58885912D02*
X105554510Y-58885912D01*
X106554510Y-57885912D02*
X106840225Y-58885912D01*
X106840225Y-58885912D02*
X107125939Y-58171626D01*
X107125939Y-58171626D02*
X107411653Y-58885912D01*
X107411653Y-58885912D02*
X107697367Y-57885912D01*
X109268796Y-57885912D02*
X109625939Y-58885912D01*
X109625939Y-58885912D02*
X109983082Y-57885912D01*
X110840225Y-57385912D02*
X110983082Y-57385912D01*
X110983082Y-57385912D02*
X111125939Y-57457341D01*
X111125939Y-57457341D02*
X111197368Y-57528769D01*
X111197368Y-57528769D02*
X111268796Y-57671626D01*
X111268796Y-57671626D02*
X111340225Y-57957341D01*
X111340225Y-57957341D02*
X111340225Y-58314484D01*
X111340225Y-58314484D02*
X111268796Y-58600198D01*
X111268796Y-58600198D02*
X111197368Y-58743055D01*
X111197368Y-58743055D02*
X111125939Y-58814484D01*
X111125939Y-58814484D02*
X110983082Y-58885912D01*
X110983082Y-58885912D02*
X110840225Y-58885912D01*
X110840225Y-58885912D02*
X110697368Y-58814484D01*
X110697368Y-58814484D02*
X110625939Y-58743055D01*
X110625939Y-58743055D02*
X110554510Y-58600198D01*
X110554510Y-58600198D02*
X110483082Y-58314484D01*
X110483082Y-58314484D02*
X110483082Y-57957341D01*
X110483082Y-57957341D02*
X110554510Y-57671626D01*
X110554510Y-57671626D02*
X110625939Y-57528769D01*
X110625939Y-57528769D02*
X110697368Y-57457341D01*
X110697368Y-57457341D02*
X110840225Y-57385912D01*
X98054510Y-61300828D02*
X98054510Y-59800828D01*
X98054510Y-59800828D02*
X98554510Y-60872257D01*
X98554510Y-60872257D02*
X99054510Y-59800828D01*
X99054510Y-59800828D02*
X99054510Y-61300828D01*
X100411654Y-61300828D02*
X100411654Y-60515114D01*
X100411654Y-60515114D02*
X100340225Y-60372257D01*
X100340225Y-60372257D02*
X100197368Y-60300828D01*
X100197368Y-60300828D02*
X99911654Y-60300828D01*
X99911654Y-60300828D02*
X99768796Y-60372257D01*
X100411654Y-61229400D02*
X100268796Y-61300828D01*
X100268796Y-61300828D02*
X99911654Y-61300828D01*
X99911654Y-61300828D02*
X99768796Y-61229400D01*
X99768796Y-61229400D02*
X99697368Y-61086542D01*
X99697368Y-61086542D02*
X99697368Y-60943685D01*
X99697368Y-60943685D02*
X99768796Y-60800828D01*
X99768796Y-60800828D02*
X99911654Y-60729400D01*
X99911654Y-60729400D02*
X100268796Y-60729400D01*
X100268796Y-60729400D02*
X100411654Y-60657971D01*
X101768797Y-61300828D02*
X101768797Y-59800828D01*
X101768797Y-61229400D02*
X101625939Y-61300828D01*
X101625939Y-61300828D02*
X101340225Y-61300828D01*
X101340225Y-61300828D02*
X101197368Y-61229400D01*
X101197368Y-61229400D02*
X101125939Y-61157971D01*
X101125939Y-61157971D02*
X101054511Y-61015114D01*
X101054511Y-61015114D02*
X101054511Y-60586542D01*
X101054511Y-60586542D02*
X101125939Y-60443685D01*
X101125939Y-60443685D02*
X101197368Y-60372257D01*
X101197368Y-60372257D02*
X101340225Y-60300828D01*
X101340225Y-60300828D02*
X101625939Y-60300828D01*
X101625939Y-60300828D02*
X101768797Y-60372257D01*
X103054511Y-61229400D02*
X102911654Y-61300828D01*
X102911654Y-61300828D02*
X102625940Y-61300828D01*
X102625940Y-61300828D02*
X102483082Y-61229400D01*
X102483082Y-61229400D02*
X102411654Y-61086542D01*
X102411654Y-61086542D02*
X102411654Y-60515114D01*
X102411654Y-60515114D02*
X102483082Y-60372257D01*
X102483082Y-60372257D02*
X102625940Y-60300828D01*
X102625940Y-60300828D02*
X102911654Y-60300828D01*
X102911654Y-60300828D02*
X103054511Y-60372257D01*
X103054511Y-60372257D02*
X103125940Y-60515114D01*
X103125940Y-60515114D02*
X103125940Y-60657971D01*
X103125940Y-60657971D02*
X102411654Y-60800828D01*
X104911653Y-61300828D02*
X104911653Y-59800828D01*
X104911653Y-60372257D02*
X105054511Y-60300828D01*
X105054511Y-60300828D02*
X105340225Y-60300828D01*
X105340225Y-60300828D02*
X105483082Y-60372257D01*
X105483082Y-60372257D02*
X105554511Y-60443685D01*
X105554511Y-60443685D02*
X105625939Y-60586542D01*
X105625939Y-60586542D02*
X105625939Y-61015114D01*
X105625939Y-61015114D02*
X105554511Y-61157971D01*
X105554511Y-61157971D02*
X105483082Y-61229400D01*
X105483082Y-61229400D02*
X105340225Y-61300828D01*
X105340225Y-61300828D02*
X105054511Y-61300828D01*
X105054511Y-61300828D02*
X104911653Y-61229400D01*
X106125939Y-60300828D02*
X106483082Y-61300828D01*
X106840225Y-60300828D02*
X106483082Y-61300828D01*
X106483082Y-61300828D02*
X106340225Y-61657971D01*
X106340225Y-61657971D02*
X106268796Y-61729400D01*
X106268796Y-61729400D02*
X106125939Y-61800828D01*
X108554510Y-61300828D02*
X108554510Y-59800828D01*
X108554510Y-59800828D02*
X109125939Y-59800828D01*
X109125939Y-59800828D02*
X109268796Y-59872257D01*
X109268796Y-59872257D02*
X109340225Y-59943685D01*
X109340225Y-59943685D02*
X109411653Y-60086542D01*
X109411653Y-60086542D02*
X109411653Y-60300828D01*
X109411653Y-60300828D02*
X109340225Y-60443685D01*
X109340225Y-60443685D02*
X109268796Y-60515114D01*
X109268796Y-60515114D02*
X109125939Y-60586542D01*
X109125939Y-60586542D02*
X108554510Y-60586542D01*
X110054510Y-61300828D02*
X110054510Y-59800828D01*
X110697368Y-61300828D02*
X110697368Y-60515114D01*
X110697368Y-60515114D02*
X110625939Y-60372257D01*
X110625939Y-60372257D02*
X110483082Y-60300828D01*
X110483082Y-60300828D02*
X110268796Y-60300828D01*
X110268796Y-60300828D02*
X110125939Y-60372257D01*
X110125939Y-60372257D02*
X110054510Y-60443685D01*
X111411653Y-61300828D02*
X111411653Y-60300828D01*
X111411653Y-59800828D02*
X111340225Y-59872257D01*
X111340225Y-59872257D02*
X111411653Y-59943685D01*
X111411653Y-59943685D02*
X111483082Y-59872257D01*
X111483082Y-59872257D02*
X111411653Y-59800828D01*
X111411653Y-59800828D02*
X111411653Y-59943685D01*
X112840225Y-61300828D02*
X112125939Y-61300828D01*
X112125939Y-61300828D02*
X112125939Y-59800828D01*
X113983083Y-61300828D02*
X113983083Y-60515114D01*
X113983083Y-60515114D02*
X113911654Y-60372257D01*
X113911654Y-60372257D02*
X113768797Y-60300828D01*
X113768797Y-60300828D02*
X113483083Y-60300828D01*
X113483083Y-60300828D02*
X113340225Y-60372257D01*
X113983083Y-61229400D02*
X113840225Y-61300828D01*
X113840225Y-61300828D02*
X113483083Y-61300828D01*
X113483083Y-61300828D02*
X113340225Y-61229400D01*
X113340225Y-61229400D02*
X113268797Y-61086542D01*
X113268797Y-61086542D02*
X113268797Y-60943685D01*
X113268797Y-60943685D02*
X113340225Y-60800828D01*
X113340225Y-60800828D02*
X113483083Y-60729400D01*
X113483083Y-60729400D02*
X113840225Y-60729400D01*
X113840225Y-60729400D02*
X113983083Y-60657971D01*
X114697368Y-61300828D02*
X114697368Y-59800828D01*
X114697368Y-60372257D02*
X114840226Y-60300828D01*
X114840226Y-60300828D02*
X115125940Y-60300828D01*
X115125940Y-60300828D02*
X115268797Y-60372257D01*
X115268797Y-60372257D02*
X115340226Y-60443685D01*
X115340226Y-60443685D02*
X115411654Y-60586542D01*
X115411654Y-60586542D02*
X115411654Y-61015114D01*
X115411654Y-61015114D02*
X115340226Y-61157971D01*
X115340226Y-61157971D02*
X115268797Y-61229400D01*
X115268797Y-61229400D02*
X115125940Y-61300828D01*
X115125940Y-61300828D02*
X114840226Y-61300828D01*
X114840226Y-61300828D02*
X114697368Y-61229400D01*
X115983083Y-61229400D02*
X116125940Y-61300828D01*
X116125940Y-61300828D02*
X116411654Y-61300828D01*
X116411654Y-61300828D02*
X116554511Y-61229400D01*
X116554511Y-61229400D02*
X116625940Y-61086542D01*
X116625940Y-61086542D02*
X116625940Y-61015114D01*
X116625940Y-61015114D02*
X116554511Y-60872257D01*
X116554511Y-60872257D02*
X116411654Y-60800828D01*
X116411654Y-60800828D02*
X116197369Y-60800828D01*
X116197369Y-60800828D02*
X116054511Y-60729400D01*
X116054511Y-60729400D02*
X115983083Y-60586542D01*
X115983083Y-60586542D02*
X115983083Y-60515114D01*
X115983083Y-60515114D02*
X116054511Y-60372257D01*
X116054511Y-60372257D02*
X116197369Y-60300828D01*
X116197369Y-60300828D02*
X116411654Y-60300828D01*
X116411654Y-60300828D02*
X116554511Y-60372257D01*
X119054512Y-61300828D02*
X119054512Y-60515114D01*
X119054512Y-60515114D02*
X118983083Y-60372257D01*
X118983083Y-60372257D02*
X118840226Y-60300828D01*
X118840226Y-60300828D02*
X118554512Y-60300828D01*
X118554512Y-60300828D02*
X118411654Y-60372257D01*
X119054512Y-61229400D02*
X118911654Y-61300828D01*
X118911654Y-61300828D02*
X118554512Y-61300828D01*
X118554512Y-61300828D02*
X118411654Y-61229400D01*
X118411654Y-61229400D02*
X118340226Y-61086542D01*
X118340226Y-61086542D02*
X118340226Y-60943685D01*
X118340226Y-60943685D02*
X118411654Y-60800828D01*
X118411654Y-60800828D02*
X118554512Y-60729400D01*
X118554512Y-60729400D02*
X118911654Y-60729400D01*
X118911654Y-60729400D02*
X119054512Y-60657971D01*
X119768797Y-60300828D02*
X119768797Y-61300828D01*
X119768797Y-60443685D02*
X119840226Y-60372257D01*
X119840226Y-60372257D02*
X119983083Y-60300828D01*
X119983083Y-60300828D02*
X120197369Y-60300828D01*
X120197369Y-60300828D02*
X120340226Y-60372257D01*
X120340226Y-60372257D02*
X120411655Y-60515114D01*
X120411655Y-60515114D02*
X120411655Y-61300828D01*
X121768798Y-61300828D02*
X121768798Y-59800828D01*
X121768798Y-61229400D02*
X121625940Y-61300828D01*
X121625940Y-61300828D02*
X121340226Y-61300828D01*
X121340226Y-61300828D02*
X121197369Y-61229400D01*
X121197369Y-61229400D02*
X121125940Y-61157971D01*
X121125940Y-61157971D02*
X121054512Y-61015114D01*
X121054512Y-61015114D02*
X121054512Y-60586542D01*
X121054512Y-60586542D02*
X121125940Y-60443685D01*
X121125940Y-60443685D02*
X121197369Y-60372257D01*
X121197369Y-60372257D02*
X121340226Y-60300828D01*
X121340226Y-60300828D02*
X121625940Y-60300828D01*
X121625940Y-60300828D02*
X121768798Y-60372257D01*
X123554512Y-61229400D02*
X123768798Y-61300828D01*
X123768798Y-61300828D02*
X124125940Y-61300828D01*
X124125940Y-61300828D02*
X124268798Y-61229400D01*
X124268798Y-61229400D02*
X124340226Y-61157971D01*
X124340226Y-61157971D02*
X124411655Y-61015114D01*
X124411655Y-61015114D02*
X124411655Y-60872257D01*
X124411655Y-60872257D02*
X124340226Y-60729400D01*
X124340226Y-60729400D02*
X124268798Y-60657971D01*
X124268798Y-60657971D02*
X124125940Y-60586542D01*
X124125940Y-60586542D02*
X123840226Y-60515114D01*
X123840226Y-60515114D02*
X123697369Y-60443685D01*
X123697369Y-60443685D02*
X123625940Y-60372257D01*
X123625940Y-60372257D02*
X123554512Y-60229400D01*
X123554512Y-60229400D02*
X123554512Y-60086542D01*
X123554512Y-60086542D02*
X123625940Y-59943685D01*
X123625940Y-59943685D02*
X123697369Y-59872257D01*
X123697369Y-59872257D02*
X123840226Y-59800828D01*
X123840226Y-59800828D02*
X124197369Y-59800828D01*
X124197369Y-59800828D02*
X124411655Y-59872257D01*
X124840226Y-60300828D02*
X125411654Y-60300828D01*
X125054511Y-59800828D02*
X125054511Y-61086542D01*
X125054511Y-61086542D02*
X125125940Y-61229400D01*
X125125940Y-61229400D02*
X125268797Y-61300828D01*
X125268797Y-61300828D02*
X125411654Y-61300828D01*
X126483083Y-61229400D02*
X126340226Y-61300828D01*
X126340226Y-61300828D02*
X126054512Y-61300828D01*
X126054512Y-61300828D02*
X125911654Y-61229400D01*
X125911654Y-61229400D02*
X125840226Y-61086542D01*
X125840226Y-61086542D02*
X125840226Y-60515114D01*
X125840226Y-60515114D02*
X125911654Y-60372257D01*
X125911654Y-60372257D02*
X126054512Y-60300828D01*
X126054512Y-60300828D02*
X126340226Y-60300828D01*
X126340226Y-60300828D02*
X126483083Y-60372257D01*
X126483083Y-60372257D02*
X126554512Y-60515114D01*
X126554512Y-60515114D02*
X126554512Y-60657971D01*
X126554512Y-60657971D02*
X125840226Y-60800828D01*
X127197368Y-60300828D02*
X127197368Y-61300828D01*
X127197368Y-60443685D02*
X127268797Y-60372257D01*
X127268797Y-60372257D02*
X127411654Y-60300828D01*
X127411654Y-60300828D02*
X127625940Y-60300828D01*
X127625940Y-60300828D02*
X127768797Y-60372257D01*
X127768797Y-60372257D02*
X127840226Y-60515114D01*
X127840226Y-60515114D02*
X127840226Y-61300828D01*
X130125940Y-61872257D02*
X130054511Y-61800828D01*
X130054511Y-61800828D02*
X129911654Y-61586542D01*
X129911654Y-61586542D02*
X129840226Y-61443685D01*
X129840226Y-61443685D02*
X129768797Y-61229400D01*
X129768797Y-61229400D02*
X129697368Y-60872257D01*
X129697368Y-60872257D02*
X129697368Y-60586542D01*
X129697368Y-60586542D02*
X129768797Y-60229400D01*
X129768797Y-60229400D02*
X129840226Y-60015114D01*
X129840226Y-60015114D02*
X129911654Y-59872257D01*
X129911654Y-59872257D02*
X130054511Y-59657971D01*
X130054511Y-59657971D02*
X130125940Y-59586542D01*
X131483083Y-59872257D02*
X131340226Y-59800828D01*
X131340226Y-59800828D02*
X131125940Y-59800828D01*
X131125940Y-59800828D02*
X130911654Y-59872257D01*
X130911654Y-59872257D02*
X130768797Y-60015114D01*
X130768797Y-60015114D02*
X130697368Y-60157971D01*
X130697368Y-60157971D02*
X130625940Y-60443685D01*
X130625940Y-60443685D02*
X130625940Y-60657971D01*
X130625940Y-60657971D02*
X130697368Y-60943685D01*
X130697368Y-60943685D02*
X130768797Y-61086542D01*
X130768797Y-61086542D02*
X130911654Y-61229400D01*
X130911654Y-61229400D02*
X131125940Y-61300828D01*
X131125940Y-61300828D02*
X131268797Y-61300828D01*
X131268797Y-61300828D02*
X131483083Y-61229400D01*
X131483083Y-61229400D02*
X131554511Y-61157971D01*
X131554511Y-61157971D02*
X131554511Y-60657971D01*
X131554511Y-60657971D02*
X131268797Y-60657971D01*
X132768797Y-61229400D02*
X132625940Y-61300828D01*
X132625940Y-61300828D02*
X132340226Y-61300828D01*
X132340226Y-61300828D02*
X132197368Y-61229400D01*
X132197368Y-61229400D02*
X132125940Y-61086542D01*
X132125940Y-61086542D02*
X132125940Y-60515114D01*
X132125940Y-60515114D02*
X132197368Y-60372257D01*
X132197368Y-60372257D02*
X132340226Y-60300828D01*
X132340226Y-60300828D02*
X132625940Y-60300828D01*
X132625940Y-60300828D02*
X132768797Y-60372257D01*
X132768797Y-60372257D02*
X132840226Y-60515114D01*
X132840226Y-60515114D02*
X132840226Y-60657971D01*
X132840226Y-60657971D02*
X132125940Y-60800828D01*
X133411654Y-61229400D02*
X133554511Y-61300828D01*
X133554511Y-61300828D02*
X133840225Y-61300828D01*
X133840225Y-61300828D02*
X133983082Y-61229400D01*
X133983082Y-61229400D02*
X134054511Y-61086542D01*
X134054511Y-61086542D02*
X134054511Y-61015114D01*
X134054511Y-61015114D02*
X133983082Y-60872257D01*
X133983082Y-60872257D02*
X133840225Y-60800828D01*
X133840225Y-60800828D02*
X133625940Y-60800828D01*
X133625940Y-60800828D02*
X133483082Y-60729400D01*
X133483082Y-60729400D02*
X133411654Y-60586542D01*
X133411654Y-60586542D02*
X133411654Y-60515114D01*
X133411654Y-60515114D02*
X133483082Y-60372257D01*
X133483082Y-60372257D02*
X133625940Y-60300828D01*
X133625940Y-60300828D02*
X133840225Y-60300828D01*
X133840225Y-60300828D02*
X133983082Y-60372257D01*
X134697368Y-60300828D02*
X134697368Y-61800828D01*
X134697368Y-60372257D02*
X134840226Y-60300828D01*
X134840226Y-60300828D02*
X135125940Y-60300828D01*
X135125940Y-60300828D02*
X135268797Y-60372257D01*
X135268797Y-60372257D02*
X135340226Y-60443685D01*
X135340226Y-60443685D02*
X135411654Y-60586542D01*
X135411654Y-60586542D02*
X135411654Y-61015114D01*
X135411654Y-61015114D02*
X135340226Y-61157971D01*
X135340226Y-61157971D02*
X135268797Y-61229400D01*
X135268797Y-61229400D02*
X135125940Y-61300828D01*
X135125940Y-61300828D02*
X134840226Y-61300828D01*
X134840226Y-61300828D02*
X134697368Y-61229400D01*
X136625940Y-61229400D02*
X136483083Y-61300828D01*
X136483083Y-61300828D02*
X136197369Y-61300828D01*
X136197369Y-61300828D02*
X136054511Y-61229400D01*
X136054511Y-61229400D02*
X135983083Y-61086542D01*
X135983083Y-61086542D02*
X135983083Y-60515114D01*
X135983083Y-60515114D02*
X136054511Y-60372257D01*
X136054511Y-60372257D02*
X136197369Y-60300828D01*
X136197369Y-60300828D02*
X136483083Y-60300828D01*
X136483083Y-60300828D02*
X136625940Y-60372257D01*
X136625940Y-60372257D02*
X136697369Y-60515114D01*
X136697369Y-60515114D02*
X136697369Y-60657971D01*
X136697369Y-60657971D02*
X135983083Y-60800828D01*
X137554511Y-61300828D02*
X137411654Y-61229400D01*
X137411654Y-61229400D02*
X137340225Y-61086542D01*
X137340225Y-61086542D02*
X137340225Y-59800828D01*
X137983082Y-61872257D02*
X138054511Y-61800828D01*
X138054511Y-61800828D02*
X138197368Y-61586542D01*
X138197368Y-61586542D02*
X138268797Y-61443685D01*
X138268797Y-61443685D02*
X138340225Y-61229400D01*
X138340225Y-61229400D02*
X138411654Y-60872257D01*
X138411654Y-60872257D02*
X138411654Y-60586542D01*
X138411654Y-60586542D02*
X138340225Y-60229400D01*
X138340225Y-60229400D02*
X138268797Y-60015114D01*
X138268797Y-60015114D02*
X138197368Y-59872257D01*
X138197368Y-59872257D02*
X138054511Y-59657971D01*
X138054511Y-59657971D02*
X137983082Y-59586542D01*
X140268796Y-61300828D02*
X140268796Y-59800828D01*
X140268796Y-60515114D02*
X141125939Y-60515114D01*
X141125939Y-61300828D02*
X141125939Y-59800828D01*
X142411654Y-61229400D02*
X142268797Y-61300828D01*
X142268797Y-61300828D02*
X141983083Y-61300828D01*
X141983083Y-61300828D02*
X141840225Y-61229400D01*
X141840225Y-61229400D02*
X141768797Y-61086542D01*
X141768797Y-61086542D02*
X141768797Y-60515114D01*
X141768797Y-60515114D02*
X141840225Y-60372257D01*
X141840225Y-60372257D02*
X141983083Y-60300828D01*
X141983083Y-60300828D02*
X142268797Y-60300828D01*
X142268797Y-60300828D02*
X142411654Y-60372257D01*
X142411654Y-60372257D02*
X142483083Y-60515114D01*
X142483083Y-60515114D02*
X142483083Y-60657971D01*
X142483083Y-60657971D02*
X141768797Y-60800828D01*
X143125939Y-61300828D02*
X143125939Y-60300828D01*
X143125939Y-59800828D02*
X143054511Y-59872257D01*
X143054511Y-59872257D02*
X143125939Y-59943685D01*
X143125939Y-59943685D02*
X143197368Y-59872257D01*
X143197368Y-59872257D02*
X143125939Y-59800828D01*
X143125939Y-59800828D02*
X143125939Y-59943685D01*
X143840225Y-61300828D02*
X143840225Y-60300828D01*
X143840225Y-60443685D02*
X143911654Y-60372257D01*
X143911654Y-60372257D02*
X144054511Y-60300828D01*
X144054511Y-60300828D02*
X144268797Y-60300828D01*
X144268797Y-60300828D02*
X144411654Y-60372257D01*
X144411654Y-60372257D02*
X144483083Y-60515114D01*
X144483083Y-60515114D02*
X144483083Y-61300828D01*
X144483083Y-60515114D02*
X144554511Y-60372257D01*
X144554511Y-60372257D02*
X144697368Y-60300828D01*
X144697368Y-60300828D02*
X144911654Y-60300828D01*
X144911654Y-60300828D02*
X145054511Y-60372257D01*
X145054511Y-60372257D02*
X145125940Y-60515114D01*
X145125940Y-60515114D02*
X145125940Y-61300828D01*
X145840225Y-61300828D02*
X145840225Y-59800828D01*
X145840225Y-60372257D02*
X145983083Y-60300828D01*
X145983083Y-60300828D02*
X146268797Y-60300828D01*
X146268797Y-60300828D02*
X146411654Y-60372257D01*
X146411654Y-60372257D02*
X146483083Y-60443685D01*
X146483083Y-60443685D02*
X146554511Y-60586542D01*
X146554511Y-60586542D02*
X146554511Y-61015114D01*
X146554511Y-61015114D02*
X146483083Y-61157971D01*
X146483083Y-61157971D02*
X146411654Y-61229400D01*
X146411654Y-61229400D02*
X146268797Y-61300828D01*
X146268797Y-61300828D02*
X145983083Y-61300828D01*
X145983083Y-61300828D02*
X145840225Y-61229400D01*
X147197368Y-61300828D02*
X147197368Y-60300828D01*
X147197368Y-60586542D02*
X147268797Y-60443685D01*
X147268797Y-60443685D02*
X147340226Y-60372257D01*
X147340226Y-60372257D02*
X147483083Y-60300828D01*
X147483083Y-60300828D02*
X147625940Y-60300828D01*
X148340225Y-61300828D02*
X148197368Y-61229400D01*
X148197368Y-61229400D02*
X148125939Y-61157971D01*
X148125939Y-61157971D02*
X148054511Y-61015114D01*
X148054511Y-61015114D02*
X148054511Y-60586542D01*
X148054511Y-60586542D02*
X148125939Y-60443685D01*
X148125939Y-60443685D02*
X148197368Y-60372257D01*
X148197368Y-60372257D02*
X148340225Y-60300828D01*
X148340225Y-60300828D02*
X148554511Y-60300828D01*
X148554511Y-60300828D02*
X148697368Y-60372257D01*
X148697368Y-60372257D02*
X148768797Y-60443685D01*
X148768797Y-60443685D02*
X148840225Y-60586542D01*
X148840225Y-60586542D02*
X148840225Y-61015114D01*
X148840225Y-61015114D02*
X148768797Y-61157971D01*
X148768797Y-61157971D02*
X148697368Y-61229400D01*
X148697368Y-61229400D02*
X148554511Y-61300828D01*
X148554511Y-61300828D02*
X148340225Y-61300828D01*
X150125940Y-61300828D02*
X150125940Y-59800828D01*
X150125940Y-61229400D02*
X149983082Y-61300828D01*
X149983082Y-61300828D02*
X149697368Y-61300828D01*
X149697368Y-61300828D02*
X149554511Y-61229400D01*
X149554511Y-61229400D02*
X149483082Y-61157971D01*
X149483082Y-61157971D02*
X149411654Y-61015114D01*
X149411654Y-61015114D02*
X149411654Y-60586542D01*
X149411654Y-60586542D02*
X149483082Y-60443685D01*
X149483082Y-60443685D02*
X149554511Y-60372257D01*
X149554511Y-60372257D02*
X149697368Y-60300828D01*
X149697368Y-60300828D02*
X149983082Y-60300828D01*
X149983082Y-60300828D02*
X150125940Y-60372257D01*
X150625940Y-60300828D02*
X151197368Y-60300828D01*
X150840225Y-59800828D02*
X150840225Y-61086542D01*
X150840225Y-61086542D02*
X150911654Y-61229400D01*
X150911654Y-61229400D02*
X151054511Y-61300828D01*
X151054511Y-61300828D02*
X151197368Y-61300828D01*
D12*
%TO.P,REF\u002A\u002A,1*%
%TO.N,N/C*%
X167500000Y-61000000D03*
X167500000Y-87000000D03*
X170000000Y-61000000D03*
X170000000Y-87000000D03*
X179000000Y-61000000D03*
X179000000Y-87000000D03*
X181500000Y-61000000D03*
X181500000Y-87000000D03*
%TD*%
D13*
%TO.P,REF\u002A\u002A,1*%
%TO.N,N/C*%
X141000000Y-72000000D03*
D14*
%TO.P,REF\u002A\u002A,2*%
X142000000Y-72000000D03*
%TO.P,REF\u002A\u002A,3*%
X141000000Y-73000000D03*
%TO.P,REF\u002A\u002A,4*%
X142000000Y-73000000D03*
%TO.P,REF\u002A\u002A,5*%
X141000000Y-74000000D03*
%TO.P,REF\u002A\u002A,6*%
X142000000Y-74000000D03*
%TO.P,REF\u002A\u002A,7*%
X141000000Y-75000000D03*
%TO.P,REF\u002A\u002A,8*%
X142000000Y-75000000D03*
%TO.P,REF\u002A\u002A,9*%
X141000000Y-76000000D03*
%TO.P,REF\u002A\u002A,10*%
X142000000Y-76000000D03*
%TO.P,REF\u002A\u002A,11*%
X141000000Y-77000000D03*
%TO.P,REF\u002A\u002A,12*%
X142000000Y-77000000D03*
%TO.P,REF\u002A\u002A,13*%
X141000000Y-78000000D03*
%TO.P,REF\u002A\u002A,14*%
X142000000Y-78000000D03*
%TO.P,REF\u002A\u002A,15*%
X141000000Y-79000000D03*
%TO.P,REF\u002A\u002A,16*%
X142000000Y-79000000D03*
%TO.P,REF\u002A\u002A,17*%
X141000000Y-80000000D03*
%TO.P,REF\u002A\u002A,18*%
X142000000Y-80000000D03*
%TD*%
D13*
%TO.P,REF\u002A\u002A,1*%
%TO.N,N/C*%
X131000000Y-74000000D03*
D14*
%TO.P,REF\u002A\u002A,2*%
X132000000Y-74000000D03*
%TO.P,REF\u002A\u002A,3*%
X131000000Y-75000000D03*
%TO.P,REF\u002A\u002A,4*%
X132000000Y-75000000D03*
%TO.P,REF\u002A\u002A,5*%
X131000000Y-76000000D03*
%TO.P,REF\u002A\u002A,6*%
X132000000Y-76000000D03*
%TO.P,REF\u002A\u002A,7*%
X131000000Y-77000000D03*
%TO.P,REF\u002A\u002A,8*%
X132000000Y-77000000D03*
%TO.P,REF\u002A\u002A,9*%
X131000000Y-78000000D03*
%TO.P,REF\u002A\u002A,10*%
X132000000Y-78000000D03*
%TD*%
D15*
%TO.P,REF\u002A\u002A,6*%
%TO.N,N/C*%
X134695000Y-105600000D03*
%TO.P,REF\u002A\u002A,5*%
X134695000Y-103060000D03*
%TO.P,REF\u002A\u002A,4*%
X134695000Y-100520000D03*
%TO.P,REF\u002A\u002A,3*%
X134695000Y-97980000D03*
%TO.P,REF\u002A\u002A,2*%
X134695000Y-95440000D03*
%TO.P,REF\u002A\u002A,1*%
X134695000Y-92900000D03*
%TO.P,REF\u002A\u002A,7*%
X161365000Y-92265000D03*
%TO.P,REF\u002A\u002A,8*%
X158825000Y-92265000D03*
%TO.P,REF\u002A\u002A,9*%
X156285000Y-92265000D03*
%TO.P,REF\u002A\u002A,10*%
X153745000Y-92265000D03*
%TO.P,REF\u002A\u002A,11*%
X151205000Y-92265000D03*
%TO.P,REF\u002A\u002A,12*%
X148665000Y-92265000D03*
%TO.P,REF\u002A\u002A,13*%
X146125000Y-92265000D03*
%TO.P,REF\u002A\u002A,14*%
X143585000Y-92265000D03*
%TO.P,REF\u002A\u002A,15*%
X141045000Y-92265000D03*
%TD*%
D16*
%TO.P,REF\u002A\u002A,30*%
%TO.N,N/C*%
X117360000Y-70000000D03*
%TO.P,REF\u002A\u002A,29*%
X117360000Y-72540000D03*
%TO.P,REF\u002A\u002A,28*%
X117360000Y-75080000D03*
%TO.P,REF\u002A\u002A,27*%
X117360000Y-77620000D03*
%TO.P,REF\u002A\u002A,26*%
X117360000Y-80160000D03*
%TO.P,REF\u002A\u002A,25*%
X117360000Y-82700000D03*
%TO.P,REF\u002A\u002A,24*%
X117360000Y-85240000D03*
%TO.P,REF\u002A\u002A,23*%
X117360000Y-87780000D03*
%TO.P,REF\u002A\u002A,22*%
X117360000Y-90320000D03*
%TO.P,REF\u002A\u002A,21*%
X117360000Y-92860000D03*
%TO.P,REF\u002A\u002A,20*%
X117360000Y-95400000D03*
%TO.P,REF\u002A\u002A,19*%
X117360000Y-97940000D03*
%TO.P,REF\u002A\u002A,18*%
X117360000Y-100480000D03*
%TO.P,REF\u002A\u002A,17*%
X117360000Y-103020000D03*
%TO.P,REF\u002A\u002A,16*%
X117360000Y-105560000D03*
%TO.P,REF\u002A\u002A,15*%
X94500000Y-105560000D03*
%TO.P,REF\u002A\u002A,14*%
X94500000Y-103020000D03*
%TO.P,REF\u002A\u002A,13*%
X94500000Y-100480000D03*
%TO.P,REF\u002A\u002A,12*%
X94500000Y-97940000D03*
%TO.P,REF\u002A\u002A,11*%
X94500000Y-95400000D03*
%TO.P,REF\u002A\u002A,10*%
X94500000Y-92860000D03*
%TO.P,REF\u002A\u002A,9*%
X94500000Y-90320000D03*
%TO.P,REF\u002A\u002A,8*%
X94500000Y-87780000D03*
%TO.P,REF\u002A\u002A,7*%
X94500000Y-85240000D03*
%TO.P,REF\u002A\u002A,6*%
X94500000Y-82700000D03*
%TO.P,REF\u002A\u002A,5*%
X94500000Y-80160000D03*
%TO.P,REF\u002A\u002A,4*%
X94500000Y-77620000D03*
%TO.P,REF\u002A\u002A,3*%
X94500000Y-75080000D03*
%TO.P,REF\u002A\u002A,2*%
X94500000Y-72540000D03*
D17*
%TO.P,REF\u002A\u002A,1*%
X94500000Y-70000000D03*
%TD*%
D18*
%TO.N,*%
X170000000Y-113000000D03*
X170000000Y-107000000D03*
X132500000Y-68000000D03*
X137500000Y-68000000D03*
X123000000Y-104500000D03*
X130000000Y-84000000D03*
X123000000Y-84000000D03*
X123000000Y-102000000D03*
X131000000Y-83000000D03*
X127500000Y-83000000D03*
X127500000Y-86000000D03*
X124500000Y-88000000D03*
X145500000Y-69500000D03*
X146000000Y-80500000D03*
X144500000Y-71000000D03*
X144500000Y-73000000D03*
X100000000Y-90500000D03*
%TD*%
D19*
%TO.N,*%
X91520000Y-106000000D02*
X94500000Y-103020000D01*
X91500000Y-106000000D02*
X91520000Y-106000000D01*
X99500000Y-115000000D02*
X91500000Y-107000000D01*
X91500000Y-107000000D02*
X91500000Y-106000000D01*
X99500000Y-115000000D02*
X99480000Y-115000000D01*
X127000000Y-115000000D02*
X99500000Y-115000000D01*
X129000000Y-113000000D02*
X127000000Y-115000000D01*
X170000000Y-113000000D02*
X129000000Y-113000000D01*
X170000000Y-87000000D02*
X170000000Y-107000000D01*
X101940000Y-113000000D02*
X94500000Y-105560000D01*
X124500000Y-113000000D02*
X101940000Y-113000000D01*
X127500000Y-110000000D02*
X124500000Y-113000000D01*
X179000000Y-110000000D02*
X127500000Y-110000000D01*
X179000000Y-87000000D02*
X179000000Y-110000000D01*
X132000000Y-68500000D02*
X132000000Y-74000000D01*
X132500000Y-68000000D02*
X132000000Y-68500000D01*
X159000000Y-68000000D02*
X137500000Y-68000000D01*
X172000000Y-68000000D02*
X159000000Y-68000000D01*
X179000000Y-61000000D02*
X172000000Y-68000000D01*
X135000000Y-74000000D02*
X134000000Y-75000000D01*
X135000000Y-66500000D02*
X135000000Y-74000000D01*
X134000000Y-75000000D02*
X132000000Y-75000000D01*
X162000000Y-66500000D02*
X135000000Y-66500000D01*
X167500000Y-61000000D02*
X162000000Y-66500000D01*
X123000000Y-104500000D02*
X123000000Y-105560000D01*
X123000000Y-105560000D02*
X134655000Y-105560000D01*
X123000000Y-84000000D02*
X123000000Y-102000000D01*
X130000000Y-83000000D02*
X130000000Y-84000000D01*
X135000000Y-78000000D02*
X130000000Y-83000000D01*
X141000000Y-78000000D02*
X135000000Y-78000000D01*
X142000000Y-74000000D02*
X142000000Y-79000000D01*
X141000000Y-74000000D02*
X141000000Y-78000000D01*
X141500000Y-82000000D02*
X142000000Y-81500000D01*
X143500000Y-79500000D02*
X143500000Y-82000000D01*
X143000000Y-79000000D02*
X143500000Y-79500000D01*
X142000000Y-79000000D02*
X143000000Y-79000000D01*
X143500000Y-82000000D02*
X141500000Y-82000000D01*
X136500000Y-79000000D02*
X141000000Y-79000000D01*
X132500000Y-83000000D02*
X136500000Y-79000000D01*
X131000000Y-83000000D02*
X132500000Y-83000000D01*
X127200000Y-82700000D02*
X127500000Y-83000000D01*
X117360000Y-82700000D02*
X127200000Y-82700000D01*
X136000000Y-87500000D02*
X141500000Y-82000000D01*
X129000000Y-87500000D02*
X136000000Y-87500000D01*
X129000000Y-87500000D02*
X129000000Y-103060000D01*
X142000000Y-81500000D02*
X142000000Y-80000000D01*
X125500000Y-88000000D02*
X127500000Y-86000000D01*
X124500000Y-88000000D02*
X125500000Y-88000000D01*
X147500000Y-71500000D02*
X145500000Y-69500000D01*
X147500000Y-79000000D02*
X147500000Y-71500000D01*
X146000000Y-80500000D02*
X147500000Y-79000000D01*
X144500000Y-73000000D02*
X144500000Y-71000000D01*
X94500000Y-90320000D02*
X99820000Y-90320000D01*
X99820000Y-90320000D02*
X100000000Y-90500000D01*
X129000000Y-103060000D02*
X117400000Y-103060000D01*
X132500000Y-103060000D02*
X132500000Y-95095000D01*
X132500000Y-103060000D02*
X129000000Y-103060000D01*
X132500000Y-95095000D02*
X134695000Y-92900000D01*
X117400000Y-103060000D02*
X117360000Y-103020000D01*
X134695000Y-103060000D02*
X132500000Y-103060000D01*
X117360000Y-105560000D02*
X123000000Y-105560000D01*
X134655000Y-105560000D02*
X134695000Y-105600000D01*
%TD*%
M02*
