M48
; DRILL file {KiCad 9.0.2} date 2025-07-06T16:22:31+0200
; FORMAT={-:-/ absolute / metric / decimal}
; #@! TF.CreationDate,2025-07-06T16:22:31+02:00
; #@! TF.GenerationSoftware,Kicad,Pcbnew,9.0.2
; #@! TF.FileFunction,Plated,1,2,PTH
FMAT,2
METRIC
; #@! TA.AperFunction,Plated,PTH,ViaDrill
T1C0.300
; #@! TA.AperFunction,Plated,PTH,ComponentDrill
T2C0.500
; #@! TA.AperFunction,Plated,PTH,ComponentDrill
T3C0.900
; #@! TA.AperFunction,Plated,PTH,ComponentDrill
T4C1.000
%
G90
G05
T1
X100.0Y-90.5
X123.0Y-84.0
X123.0Y-102.0
X123.0Y-104.5
X124.5Y-88.0
X127.5Y-83.0
X127.5Y-86.0
X130.0Y-84.0
X131.0Y-83.0
X132.5Y-68.0
X137.5Y-68.0
X144.5Y-71.0
X144.5Y-73.0
X145.5Y-69.5
X146.0Y-80.5
X170.0Y-107.0
X170.0Y-113.0
T2
X131.0Y-74.0
X131.0Y-75.0
X131.0Y-76.0
X131.0Y-77.0
X131.0Y-78.0
X132.0Y-74.0
X132.0Y-75.0
X132.0Y-76.0
X132.0Y-77.0
X132.0Y-78.0
X141.0Y-72.0
X141.0Y-73.0
X141.0Y-74.0
X141.0Y-75.0
X141.0Y-76.0
X141.0Y-77.0
X141.0Y-78.0
X141.0Y-79.0
X141.0Y-80.0
X142.0Y-72.0
X142.0Y-73.0
X142.0Y-74.0
X142.0Y-75.0
X142.0Y-76.0
X142.0Y-77.0
X142.0Y-78.0
X142.0Y-79.0
X142.0Y-80.0
T3
X94.5Y-70.0
X94.5Y-72.54
X94.5Y-75.08
X94.5Y-77.62
X94.5Y-80.16
X94.5Y-82.7
X94.5Y-85.24
X94.5Y-87.78
X94.5Y-90.32
X94.5Y-92.86
X94.5Y-95.4
X94.5Y-97.94
X94.5Y-100.48
X94.5Y-103.02
X94.5Y-105.56
X117.36Y-70.0
X117.36Y-72.54
X117.36Y-75.08
X117.36Y-77.62
X117.36Y-80.16
X117.36Y-82.7
X117.36Y-85.24
X117.36Y-87.78
X117.36Y-90.32
X117.36Y-92.86
X117.36Y-95.4
X117.36Y-97.94
X117.36Y-100.48
X117.36Y-103.02
X117.36Y-105.56
T4
X134.695Y-92.9
X134.695Y-95.44
X134.695Y-97.98
X134.695Y-100.52
X134.695Y-103.06
X134.695Y-105.6
X141.045Y-92.265
X143.585Y-92.265
X146.125Y-92.265
X148.665Y-92.265
X151.205Y-92.265
X153.745Y-92.265
X156.285Y-92.265
X158.825Y-92.265
X161.365Y-92.265
X167.5Y-61.0
X167.5Y-87.0
X170.0Y-61.0
X170.0Y-87.0
X179.0Y-61.0
X179.0Y-87.0
X181.5Y-61.0
X181.5Y-87.0
M30
